The Barrens 2012 BDRiP AC3-5 1 XviD-AXED

IMDB:  
http://www.imdb.com/title/tt2050633/

PLOT INFO:
A man takes his family on a camping trip and becomes convinced they are being stalked by the legendary monster of the New Jersey Pine Barrens: the Jersey Devil.

Media Info:
General
Complete name                    : The.Barrens.2012.BDRiP.AC3-5.1.XviD-AXED.avi
Format                           : AVI
Format/Info                      : Audio Video Interleave
File size                        : 1.37 GiB
Duration                         : 1h 33mn
Overall bit rate                 : 2 085 Kbps

Video
ID                               : 0
Format                           : MPEG-4 Visual
Format profile                   : Advanced Simple@L5
Format settings, BVOP            : 1
Format settings, QPel            : No
Format settings, GMC             : No warppoints
Format settings, Matrix          : Default (H.263)
Codec ID                         : XVID
Codec ID/Hint                    : XviD
Duration                         : 1h 33mn
Bit rate                         : 1 694 Kbps
Width                            : 720 pixels
Height                           : 400 pixels
Display aspect ratio             : 16:9
Frame rate                       : 23.976 fps
Color space                      : YUV
Chroma subsampling               : 4:2:0
Bit depth                        : 8 bits
Scan type                        : Progressive
Compression mode                 : Lossy
Bits/(Pixel*Frame)               : 0.245
Stream size                      : 1.11 GiB (81%)
Writing library                  : XviD 1.2.1 (UTC 2008-12-04)

Audio
ID                               : 1
Format                           : AC-3
Format/Info                      : Audio Coding 3
Mode extension                   : CM (complete main)
Codec ID                         : 2000
Duration                         : 1h 33mn
Bit rate mode                    : Constant
Bit rate                         : 384 Kbps
Channel(s)                       : 6 channels
Channel positions                : Front: L C R, Side: L R, LFE
Sampling rate                    : 48.0 KHz
Bit depth                        : 16 bits
Compression mode                 : Lossy
Stream size                      : 258 MiB (18%)
Alignment                        : Aligned on interleaves
Interleave, duration             : 64 ms (1.53 video frames)
Interleave, preload duration     : 192 ms
Title                            : 00001.dga PID 1100 3_2ch 48KHz 384Kbps DELAY 0ms_new

SOURCE: 
RA Retail Blu Ray DISC 

NOTES: 
Maybe Bousman will make up for the piece of shit that was 11-11-11, here?        

AXED! We do this better.


Poster:

 
http://i.imgur.com/PRmPX.jpg


Screenshots:

 
http://i.imgur.com/cXdz1.png

 
http://i.imgur.com/qhcqN.png

 
http://i.imgur.com/xLKyM.png


ENJOY!